<svg width="50" height="50" viewBox="0 0 50 50" fill="none" xmlns="http://www.w3.org/2000/svg">
<g filter="url(#filter0_d_7510_28310)">
<rect x="5" y="5" width="40" height="40" rx="20" fill="#FB7C37" shape-rendering="crispEdges"/>
<path d="M22.7812 16.0977L18.6718 18.8937C17.3639 19.7836 16.71 20.2285 16.355 20.9055C16 21.5824 16 22.3846 16 23.9888V30.9176C16 32.8421 16 33.8043 16.5858 34.4021C17.1716 35 18.1144 35 20 35H30C31.8856 35 32.8284 35 33.4142 34.4021C34 33.8043 34 32.8421 34 30.9176V23.9888C34 22.3846 34 21.5824 33.645 20.9055C33.29 20.2285 32.6361 19.7836 31.3282 18.8937L27.2188 16.0977C26.1433 15.3659 25.6056 15 25 15C24.3944 15 23.8567 15.3659 22.7812 16.0977Z" stroke="white" stroke-width="1.5" stroke-linecap="round" stroke-linejoin="round"/>
<path d="M20 35V28C20 26.1144 20 25.1716 20.5858 24.5858C21.1716 24 22.1144 24 24 24H26C27.8856 24 28.8284 24 29.4142 24.5858C30 25.1716 30 26.1144 30 28V35" stroke="white" stroke-width="1.5" stroke-linecap="round" stroke-linejoin="round"/>
<path d="M20 27H30" stroke="white" stroke-width="1.5" stroke-linecap="round" stroke-linejoin="round"/>
<path d="M20 31H30" stroke="white" stroke-width="1.5" stroke-linecap="round" stroke-linejoin="round"/>
<path d="M25.008 20H24.999" stroke="white" stroke-width="2" stroke-linecap="round" stroke-linejoin="round"/>
</g>
<defs>
<filter id="filter0_d_7510_28310" x="0" y="0" width="50" height="50" filterUnits="userSpaceOnUse" color-interpolation-filters="sRGB">
<feFlood flood-opacity="0" result="BackgroundImageFix"/>
<feColorMatrix in="SourceAlpha" type="matrix" values="0 0 0 0 0 0 0 0 0 0 0 0 0 0 0 0 0 0 127 0" result="hardAlpha"/>
<feMorphology radius="1" operator="dilate" in="SourceAlpha" result="effect1_dropShadow_7510_28310"/>
<feOffset/>
<feGaussianBlur stdDeviation="2"/>
<feComposite in2="hardAlpha" operator="out"/>
<feColorMatrix type="matrix" values="0 0 0 0 0.0522042 0 0 0 0 0.0886939 0 0 0 0 0.335 0 0 0 0.2 0"/>
<feBlend mode="normal" in2="BackgroundImageFix" result="effect1_dropShadow_7510_28310"/>
<feBlend mode="normal" in="SourceGraphic" in2="effect1_dropShadow_7510_28310" result="shape"/>
</filter>
</defs>
</svg>
